# xmcd CD database file
#
# Track frame offsets:
#	150
#	20003
#	32960
#	56741
#	77207
#	92338
#	118991
#	135498
#	151370
#	170863
#	193237
#	228170
#	245421
#	269081
#	293801
#
# Disc length: 4241 seconds
#
# Revision: 0
# Processed by: cddbd v1.5.2PL0 Copyright (c) Steve Scherf et al.
# Submitted via: CDex 1.51
#
DISCID=dc108f0f
DTITLE=Fapy Lafertin and Patrick Saussois - Django! A Tribute to Django Reinhardt, Live at the AB
DYEAR=1900
DGENRE=Jazz
TTITLE0=Swing Guitares
TTITLE1=Manoir des mes Rêves
TTITLE2=Blues en MIneur
TTITLE3=Body and Soul
TTITLE4=Embracable You
TTITLE5=L'Âme des Poètes
TTITLE6=Mélodie au Crépuscule
TTITLE7=Avalon
TTITLE8=Lentement Mademoiselle
TTITLE9=Out of Nowhere
TTITLE10=Flambée Montalbanaise
TTITLE11=Just One for Babik
TTITLE12=When Day is Gone
TTITLE13=Chant in the Night
TTITLE14=Django's Tiger
EXTD=
EXTT0=
EXTT1=
EXTT2=
EXTT3=
EXTT4=
EXTT5=
EXTT6=
EXTT7=
EXTT8=
EXTT9=
EXTT10=
EXTT11=
EXTT12=
EXTT13=
EXTT14=
PLAYORDER=
